<?xml version="1.0" encoding="utf-8"?>
<!-- Generator: Adobe Illustrator 18.1.1, SVG Export Plug-In . SVG Version: 6.00 Build 0)  -->
<svg version="1.1" id="Layer_1" xmlns="http://www.w3.org/2000/svg" xmlns:xlink="http://www.w3.org/1999/xlink" x="0px" y="0px"
	 viewBox="0 0 6000 4000" enable-background="new 0 0 6000 4000" xml:space="preserve">
<g>
	<rect x="-0.9" y="478.4" width="6001.9" height="3103.4"/>
	<polygon fill="#26A9E0" points="2064.4,1463.9 2098.6,2370.8 1297.4,1944.4 	"/>
	<polygon fill="#26A9E0" points="2098.2,2370 1331.3,2848.1 1297.7,1944.9 	"/>
	<polygon fill="#1B75BB" points="1279.3,1909.2 490.4,1483 1252.9,1011.3 	"/>
	<polygon fill="#1B75BB" points="1252.9,1011.3 2046.1,1436.4 1280.4,1909.1 	"/>
	<polygon fill="#2B388F" points="469.6,1516.2 1265,1941.3 498.8,2417 	"/>
	<polygon fill="#2B388F" points="1265,1941.6 1295.4,2845.7 498.8,2417 	"/>
	<polygon fill="#26A9E0" points="3941,1475.8 3906.8,2382.7 4708,1956.4 	"/>
	<polygon fill="#26A9E0" points="3907.1,2381.9 4674.1,2860 4707.6,1956.8 	"/>
	<polygon fill="#1B75BB" points="4726.1,1921.1 5515,1494.9 4752.4,1023.2 	"/>
	<polygon fill="#1B75BB" points="4752.4,1023.2 3959.3,1448.3 4725,1921 	"/>
	<polygon fill="#2B388F" points="5535.8,1528.1 4740.3,1953.2 5506.6,2429 	"/>
	<polygon fill="#2B388F" points="4740.3,1953.5 4710,2857.6 5506.6,2429 	"/>
	<path id="S_1_" fill="#FFDD15" d="M4223.9,2302v-1.4c0-31.8,25.8-57.6,57.6-57.6h230.6h115.3v-113.9h-115.3h-288.2
		c-61.6,0-111.5,96.4-111.7,215.5c0.1,37.3,5,72.4,13.7,103c19,67,55.7,112.4,98,112.4h2.3l1.3,1.4h230.6
		c31.8,0,57.6,25.8,57.6,57.6v1.4v85v1.4c0,31.8-25.8,57.6-57.6,57.6h-230.6h-115.3v45.9l63.4,67.9h51.9h288.2
		c61.6,0,111.5-96.4,111.7-215.5c-0.1-37.3-5-72.4-13.7-103l0,0c-19-67-55.7-112.4-98-112.4h-2.3l-1.3-1.4h-230.6
		c-31.8,0-57.6-25.8-57.6-57.6v-1.4V2302z"/>
	<polygon id="K_1_" fill="#FFDD15" points="3799.1,2503.6 4277.9,1990.7 4120.1,1990.7 3799.1,2334.6 3799.1,2129.1 3683.9,2129.1 
		3683.9,2878.5 3799.1,2878.5 3799.1,2672.9 4120.1,3016.8 4277.9,3016.8 3799.1,2503.9 	"/>
	<g id="Arrows_1_">
		<polygon fill="#FFDD15" points="3255.8,2302 3255.8,2441.9 3255.8,2559.1 3255.8,2705.5 3457.6,2503.8 		"/>
		<polygon fill="#FFDD15" points="2852.3,2441.9 2852.3,2302 2650.5,2503.8 2852.3,2705.5 2852.3,2559.1 		"/>
	</g>
	<g>
		<path fill="#FFDD15" d="M3286.1,2763.2c-51.4,0-99.2-15.2-139.5-41c44.2-61.5,70.4-136.9,70.4-218.4s-26.1-156.9-70.4-218.4
			c40.3-25.8,88.1-41,139.5-41c95.4,0,178.8,51.6,223.8,128.3l81-86.7c-68-94.9-179.1-156.9-304.8-156.9
			c-83.1,0-159.8,27.1-221.9,72.8c-62.1-45.8-138.9-72.8-221.9-72.8c-206.9,0-374.7,167.8-374.7,374.7s167.8,374.7,374.7,374.7
			c83.1,0,159.8-27.1,221.9-72.8c62.1,45.8,138.9,72.8,221.9,72.8c125.7,0,236.8-61.9,304.8-156.9l-81-86.7
			C3464.9,2711.6,3381.5,2763.2,3286.1,2763.2z M3026.7,2503.8c0-49,13.8-94.7,37.5-133.8c23.6,39.1,37.5,84.8,37.5,133.8
			s-13.8,94.7-37.5,133.8C3040.5,2598.5,3026.7,2552.8,3026.7,2503.8z M2582.8,2503.8c0-143.3,116.1-259.4,259.4-259.4
			c51.4,0,99.2,15.2,139.5,41c-44.2,61.5-70.4,136.9-70.4,218.4s26.1,156.9,70.4,218.4c-40.3,25.8-88.1,41-139.5,41
			C2699,2763.2,2582.8,2647,2582.8,2503.8z"/>
		<path fill="#FFDD15" d="M3645.2,2396.7l-99.7,106.8c0,0.1,0,0.2,0,0.2s0,0.2,0,0.2l99.7,106.8c10.1-33.9,15.6-69.8,15.6-107.1
			S3655.3,2430.6,3645.2,2396.7z"/>
	</g>
	<path id="L_1_" fill="#FFDD15" d="M2540.8,2763.2h-327v-634.1h-115.3v634.1v115.3h115.3h403.5v-46.6
		C2589,2812.4,2563.3,2789.2,2540.8,2763.2z"/>
	<path id="B_3_" fill="#FFDD15" d="M2075.2,2304.4c0-141.4-59.2-256.1-132.3-256.1h-341.4h-251.9l115.3,136.6v239v136.6v239
		l-115.3,136.6h251.9h341.4c73.1,0,132.3-114.7,132.3-256.1c0-74.2-16.3-141-42.4-187.8C2058.8,2445.5,2075.2,2378.7,2075.2,2304.4z
		 M1601.4,2184.9h273.2c37.7,0,68.3,30.6,68.3,68.3v102.4c0,37.7-30.6,68.3-68.3,68.3h-273.2V2184.9z M1874.6,2799.5h-273.2v-239
		h273.2c37.7,0,68.3,30.6,68.3,68.3v102.4C1942.9,2769,1912.3,2799.5,1874.6,2799.5z"/>
	<polygon id="T_1_" fill="#FFDD15" points="4004.3,1287.4 3802.6,1287.4 3687.3,1287.4 3485.5,1287.4 3485.5,1402.7 3687.3,1402.7 
		3687.3,2036.8 3802.6,2036.8 3802.6,1402.7 4004.3,1402.7 	"/>
	<polygon id="A_1_" fill="#FFDD15" points="3465,1170.1 3465,1167.6 3349.7,1334.7 2950.9,1904.3 3091.7,1904.3 3349.7,1535.7 
		3349.7,2042.6 3465,2042.6 3465,1371.1 3466.7,1167.6 	"/>
	<polygon id="E_1_" fill="#FFDD15" points="3174.2,1402.7 3174.2,1287.4 2770.7,1287.4 2655.4,1287.4 2655.4,1402.7 2655.4,1604.5 
		2655.4,1719.8 2655.4,1921.5 2655.4,2036.8 2770.7,2036.8 3174.2,2036.8 3174.2,1921.5 2770.7,1921.5 2770.7,1719.8 3001.3,1719.8 
		3001.3,1604.5 2770.7,1604.5 2770.7,1402.7 	"/>
	<path id="B_2_" fill="#FFDD15" d="M2634.3,1462.8c0-141.4-59.2-256.1-132.3-256.1h-341.4h-113.9h-138l115.3,136.6v239v136.6v239
		l-61.8,73.3c32.6,0.9,62.3,24.7,85.1,63.3h113.3H2502c73.1,0,132.3-114.7,132.3-256.1c0-74.2-16.3-141-42.4-187.8
		C2618,1603.8,2634.3,1537,2634.3,1462.8z M2502,1889.6c0,37.7-30.6,68.3-68.3,68.3h-273.2v-239h273.2c37.7,0,68.3,30.6,68.3,68.3
		V1889.6z M2502,1514c0,37.7-30.6,68.3-68.3,68.3h-273.2v-239h273.2c37.7,0,68.3,30.6,68.3,68.3V1514z"/>
</g>
<rect x="-239.6" y="-107.4" width="6457.1" height="635.7"/>
<rect x="-277.7" y="3449.7" width="6457.1" height="635.7"/>
</svg>
